<?xml version="1.0" encoding="utf-8"?>
<!-- Generator: Adobe Illustrator 15.0.0, SVG Export Plug-In . SVG Version: 6.00 Build 0)  -->
<!DOCTYPE svg PUBLIC "-//W3C//DTD SVG 1.1//EN" "http://www.w3.org/Graphics/SVG/1.1/DTD/svg11.dtd">
<svg version="1.1" id="Layer_1" xmlns="http://www.w3.org/2000/svg" xmlns:xlink="http://www.w3.org/1999/xlink" x="0px" y="0px"
	 width="351px" height="365px" viewBox="0 0 351 365" enable-background="new 0 0 351 365" xml:space="preserve">
<g id="Layer_1_1_">
</g>
<g>
	<polygon fill-rule="evenodd" clip-rule="evenodd" fill="#E14A59" points="45.281,178.964 174.398,132.581 0.038,270 	"/>
	<polygon fill-rule="evenodd" clip-rule="evenodd" fill="#E45C6A" points="92.12,95.5 174.555,132.513 45.241,179.063 	"/>
	<polygon fill-rule="evenodd" clip-rule="evenodd" fill="#DF3748" points="0,269.932 174.555,132.684 174.697,199.781 	"/>
	<polygon fill-rule="evenodd" clip-rule="evenodd" fill="#DC2537" points="101.108,228.399 175.171,269.904 174.555,199.56 	"/>
	<polygon fill-rule="evenodd" clip-rule="evenodd" fill="#951823" points="0.228,269.747 101.438,228.777 54.041,269.696 	"/>
	<polygon fill-rule="evenodd" clip-rule="evenodd" fill="#B91E2E" points="303.719,178.964 174.602,132.581 348.963,270 	"/>
	<polygon fill-rule="evenodd" clip-rule="evenodd" fill="#CB2132" points="256.88,95.5 174.445,132.513 303.76,179.063 	"/>
	<polygon fill-rule="evenodd" clip-rule="evenodd" fill="#A71B28" points="349,269.932 174.445,132.684 174.303,199.781 	"/>
	<polygon fill-rule="evenodd" clip-rule="evenodd" fill="#951823" points="247.892,228.399 173.828,269.904 174.445,199.56 	"/>
	<polygon fill-rule="evenodd" clip-rule="evenodd" fill="#951823" points="348.771,269.747 247.562,228.777 294.959,269.696 	"/>
</g>
</svg>
