<?xml version="1.0" encoding="utf-8"?>
<!-- Generator: Adobe Illustrator 15.0.0, SVG Export Plug-In . SVG Version: 6.00 Build 0)  -->
<!DOCTYPE svg PUBLIC "-//W3C//DTD SVG 1.1//EN" "http://www.w3.org/Graphics/SVG/1.1/DTD/svg11.dtd">
<svg version="1.1" id="Layer_1" xmlns="http://www.w3.org/2000/svg" xmlns:xlink="http://www.w3.org/1999/xlink" x="0px" y="0px"
	 width="351px" height="365px" viewBox="0 0 351 365" enable-background="new 0 0 351 365" xml:space="preserve">
<g id="Layer_1_1_">
</g>
<g>
	<polygon fill-rule="evenodd" clip-rule="evenodd" fill="#E14A59" points="46.54,179.94 176.394,133.293 1.038,271.496 	"/>
	<polygon fill-rule="evenodd" clip-rule="evenodd" fill="#E45C6A" points="93.646,96 176.551,133.224 46.499,180.04 	"/>
	<polygon fill-rule="evenodd" clip-rule="evenodd" fill="#DF3748" points="1,271.428 176.551,133.396 176.695,200.876 	"/>
	<polygon fill-rule="evenodd" clip-rule="evenodd" fill="#DC2537" points="102.685,229.658 177.171,271.4 176.551,200.653 	"/>
	<polygon fill-rule="evenodd" clip-rule="evenodd" fill="#951823" points="1.229,271.242 103.018,230.038 55.349,271.19 	"/>
	<polygon fill-rule="evenodd" clip-rule="evenodd" fill="#B91E2E" points="306.452,179.94 176.599,133.293 351.955,271.496 	"/>
	<polygon fill-rule="evenodd" clip-rule="evenodd" fill="#CB2132" points="259.346,96 176.441,133.224 306.493,180.04 	"/>
	<polygon fill-rule="evenodd" clip-rule="evenodd" fill="#A71B28" points="351.992,271.428 176.441,133.396 176.297,200.876 	"/>
	<polygon fill-rule="evenodd" clip-rule="evenodd" fill="#951823" points="250.308,229.658 175.82,271.4 176.441,200.653 	"/>
	<polygon fill-rule="evenodd" clip-rule="evenodd" fill="#951823" points="351.763,271.242 249.975,230.038 297.644,271.19 	"/>
</g>
</svg>
